<svg xmlns="http://www.w3.org/2000/svg" xmlns:xlink="http://www.w3.org/1999/xlink" viewBox="0 0 610 80.05"><defs><style>.cls-1{fill:none;}.cls-2{isolation:isolate;}.cls-3{clip-path:url(#clip-path);}.cls-4{fill:#ddb81f;}.cls-5{fill:#dab51f;}.cls-6{fill:#d6b31e;}.cls-7{fill:#d2af1d;}.cls-8{fill:#cfac1c;}.cls-9{fill:#cba91b;}.cls-10{fill:#c7a61a;}.cls-11{fill:#c3a319;}.cls-12{fill:#c0a018;}.cls-13{fill:#bc9d17;}.cls-14{fill:#b89a16;}.cls-15{fill:#b49615;}.cls-16{fill:#b09313;}.cls-17{fill:#ac9012;}.cls-18{fill:#a88c10;}.cls-19{fill:#a4890f;}.cls-20{fill:#e4be20;}.cls-21{clip-path:url(#clip-path-2);}.cls-22{fill:#a0850d;}.cls-23{fill:#9c820b;}.cls-24{fill:#b39614;}.cls-25{clip-path:url(#clip-path-3);}.cls-26{fill:#e1bb20;}.cls-27{fill:#e8c121;}.cls-28{fill:#ebc321;}.cls-29{fill:#eec621;}.cls-30{fill:#f1c922;}.cls-31{fill:#f4cb22;}.cls-32{fill:#f5d149;}.cls-33{fill:#f6d355;}.cls-34{fill:#f7d55f;}.cls-35{fill:#f7d766;}.cls-36{fill:#f7d86d;}.cls-37{fill:#f8da73;}.cls-38{fill:#f8db78;}.cls-39{fill:#f8dc7d;}.cls-40{clip-path:url(#clip-path-4);}.cls-41{clip-path:url(#clip-path-5);}.cls-42{fill:url(#未命名漸層_28);}</style><clipPath id="clip-path" transform="translate(0)"><path class="cls-1" d="M5.29,35.6H604.71c3.09,0,5.29,4.24,5.29,11H0C0,39.84,2.21,35.6,5.29,35.6Z"/></clipPath><clipPath id="clip-path-2" transform="translate(0)"><path class="cls-1" d="M604.71,80.05H5.29a4.67,4.67,0,0,0,2.71-1H602A4.7,4.7,0,0,0,604.71,80.05Z"/></clipPath><clipPath id="clip-path-3" transform="translate(0)"><path class="cls-1" d="M8,72c-4.42-3.13-8-12.7-8-21.37H610c0,8.67-3.58,18.24-8,21.37Z"/></clipPath><clipPath id="clip-path-4" transform="translate(0)"><path class="cls-1" d="M8,79.06c-4.42,3.13-8-1.38-8-10V50.58C0,59.25,3.58,68.82,8,72Z"/></clipPath><clipPath id="clip-path-5" transform="translate(0)"><path class="cls-1" d="M602,72c4.42-3.13,8-12.7,8-21.37V69c0,8.67-3.58,13.18-8,10Z"/></clipPath><linearGradient id="未命名漸層_28" x1="305" y1="37.16" x2="305" gradientUnits="userSpaceOnUse"><stop offset="0" stop-color="#f4cb21"/><stop offset="0.33" stop-color="#f4cb21" stop-opacity="0.7"/><stop offset="0.74" stop-color="#f4cb21" stop-opacity="0.5"/><stop offset="1" stop-color="#f4cb21" stop-opacity="0.5"/></linearGradient></defs><title>Mold_Screen</title><g id="圖層_2" data-name="圖層 2"><g id="Mold"><g id="Mold_Screen"><g id="Dashboard"><g class="cls-2"><g class="cls-2"><g class="cls-3"><g class="cls-2"><path class="cls-4" d="M610,46.65H0c0-.66,0-1.29.06-1.9H609.94c0,.61.06,1.24.06,1.9" transform="translate(0)"/><path class="cls-5" d="M609.94,44.75H.06c.05-.75.13-1.47.24-2.14H609.71c.1.67.18,1.39.23,2.14" transform="translate(0)"/><path class="cls-6" d="M609.71,42.61H.3A16.12,16.12,0,0,1,.65,40.9h608.7c.14.53.26,1.11.36,1.71" transform="translate(0)"/><path class="cls-7" d="M609.35,40.9H.65c.12-.47.26-.92.41-1.33H608.94c.15.41.29.86.41,1.33" transform="translate(0)"/><path class="cls-8" d="M608.94,39.57H1.06a11.2,11.2,0,0,1,.45-1h607c.15.32.3.67.44,1" transform="translate(0)"/><path class="cls-9" d="M608.5,38.53H1.51A7.21,7.21,0,0,1,2,37.75h606.1a7.25,7.25,0,0,1,.45.78" transform="translate(0)"/><path class="cls-10" d="M608.05,37.75H2a5.78,5.78,0,0,1,.43-.6H607.62a4.6,4.6,0,0,1,.43.6" transform="translate(0)"/><path class="cls-11" d="M607.62,37.15H2.38a6.1,6.1,0,0,1,.41-.46H607.21a6.1,6.1,0,0,1,.41.46" transform="translate(0)"/><path class="cls-12" d="M607.21,36.69H2.79l.39-.33H606.82a4,4,0,0,1,.39.33" transform="translate(0)"/><path class="cls-13" d="M606.82,36.36H3.18a4.06,4.06,0,0,1,.36-.26H606.46a4.06,4.06,0,0,1,.36.26" transform="translate(0)"/><path class="cls-14" d="M606.46,36.1H3.54l.36-.19H606.1l.36.19" transform="translate(0)"/><path class="cls-15" d="M606.1,35.91H3.9l.34-.14H605.76l.34.14" transform="translate(0)"/><path class="cls-16" d="M605.76,35.77H4.24l.32-.09H605.44l.32.09" transform="translate(0)"/><path class="cls-17" d="M605.44,35.68H4.56l.33-.06H605.11l.33.06" transform="translate(0)"/><path class="cls-18" d="M605.11,35.62H4.89l.33,0H604.79l.32,0" transform="translate(0)"/><path class="cls-19" d="M604.79,35.6h0" transform="translate(0)"/></g></g></g><rect class="cls-20" y="46.65" width="610" height="3.93"/><g class="cls-2"><g class="cls-21"><g class="cls-2"><path class="cls-18" d="M8,79.06H602l.11.08H7.89L8,79.06" transform="translate(0)"/><path class="cls-19" d="M7.89,79.14H602.11l.25.16H7.64l.25-.16" transform="translate(0)"/><path class="cls-22" d="M7.64,79.3H602.36l.24.14H7.4l.24-.14" transform="translate(0)"/><path class="cls-23" d="M7.4,79.44H602.6a4.27,4.27,0,0,0,2.11.61H5.29a4.24,4.24,0,0,0,2.11-.61" transform="translate(0)"/></g></g></g><ellipse class="cls-24" cx="305" cy="75.5" rx="715.91" ry="3.91"/><g class="cls-2"><g class="cls-25"><g class="cls-2"><path class="cls-18" d="M602,72H8l-.09-.07H602.09L602,72" transform="translate(0)"/><path class="cls-17" d="M602.09,71.88H7.91l-.17-.12H602.26l-.17.12" transform="translate(0)"/><path class="cls-16" d="M602.26,71.76H7.74l-.16-.13H602.42l-.16.13" transform="translate(0)"/><path class="cls-15" d="M602.42,71.63H7.58l-.16-.13H602.58l-.16.13" transform="translate(0)"/><path class="cls-14" d="M602.58,71.5H7.42l-.15-.14H602.74l-.16.14" transform="translate(0)"/><path class="cls-13" d="M602.74,71.36H7.27l-.15-.13H602.88l-.14.13" transform="translate(0)"/><path class="cls-12" d="M602.88,71.23H7.12L7,71.09H603l-.15.14" transform="translate(0)"/><path class="cls-11" d="M603,71.09H7L6.82,71H603.18l-.15.14" transform="translate(0)"/><path class="cls-10" d="M603.18,71H6.82l-.14-.15H603.32l-.14.15" transform="translate(0)"/><path class="cls-9" d="M603.32,70.8H6.68l-.13-.14h596.9l-.13.14" transform="translate(0)"/><path class="cls-8" d="M603.45,70.66H6.55l-.13-.14H603.58l-.13.14" transform="translate(0)"/><path class="cls-7" d="M603.58,70.52H6.42l-.13-.14H603.71l-.13.14" transform="translate(0)"/><path class="cls-6" d="M603.71,70.38H6.29l-.13-.15H603.84l-.13.15" transform="translate(0)"/><path class="cls-5" d="M603.84,70.23H6.16a1.71,1.71,0,0,1-.11-.14H604l-.12.14" transform="translate(0)"/><path class="cls-4" d="M604,70.09H6.05L6,70h598.1l-.09.11" transform="translate(0)"/><path class="cls-26" d="M604.05,70H6l-.09-.12H604.15l-.1.12" transform="translate(0)"/><path class="cls-20" d="M604.15,69.86H5.86l-.1-.12H604.24l-.09.12" transform="translate(0)"/><path class="cls-27" d="M604.24,69.74H5.76l-.09-.12H604.34l-.1.12" transform="translate(0)"/><path class="cls-28" d="M604.34,69.62H5.67a1.13,1.13,0,0,1-.1-.13H604.43l-.09.13" transform="translate(0)"/><path class="cls-29" d="M604.43,69.49H5.57l-.09-.12h599l-.09.12" transform="translate(0)"/><path class="cls-30" d="M604.52,69.37H5.48l-.1-.14H604.62l-.1.14" transform="translate(0)"/><path class="cls-31" d="M604.62,69.23H5.38l-.1-.14H604.72a.71.71,0,0,1-.1.14" transform="translate(0)"/><path class="cls-32" d="M604.72,69.09H5.28L5.18,69H604.82l-.1.14" transform="translate(0)"/><path class="cls-33" d="M604.82,69H5.18l-.09-.14H604.92l-.1.14" transform="translate(0)"/><path class="cls-34" d="M604.92,68.81H5.09L5,68.67H605l-.09.14" transform="translate(0)"/><path class="cls-35" d="M605,68.67H5a1.3,1.3,0,0,0-.1-.15H605.11l-.1.15" transform="translate(0)"/><path class="cls-36" d="M605.11,68.52H4.89l-.18-.29H605.29l-.18.29" transform="translate(0)"/><path class="cls-37" d="M605.29,68.23H4.71l-.19-.3h601c-.06.1-.12.2-.19.3" transform="translate(0)"/><path class="cls-38" d="M605.48,67.93H4.52l-.18-.32H605.67l-.19.32" transform="translate(0)"/><path class="cls-39" d="M605.67,67.61H4.34c-.19-.32-.38-.66-.56-1H606.22c-.18.35-.36.69-.55,1" transform="translate(0)"/><path class="cls-38" d="M606.22,66.6H3.78c-.1-.2-.21-.4-.31-.61H606.53c-.1.21-.21.41-.31.61" transform="translate(0)"/><path class="cls-37" d="M606.53,66H3.47L3.2,65.4H606.81c-.09.2-.19.39-.28.59" transform="translate(0)"/><path class="cls-36" d="M606.81,65.4H3.2c-.08-.17-.16-.33-.23-.51H607c-.07.18-.15.34-.22.51" transform="translate(0)"/><path class="cls-35" d="M607,64.89H3c-.07-.17-.15-.34-.22-.52h604.5c-.07.18-.14.35-.22.52" transform="translate(0)"/><path class="cls-34" d="M607.25,64.37H2.75c-.08-.18-.15-.37-.23-.55h605c-.08.18-.15.37-.23.55" transform="translate(0)"/><path class="cls-33" d="M607.48,63.82H2.52c-.07-.2-.15-.39-.22-.59H607.7c-.07.2-.15.39-.22.59" transform="translate(0)"/><path class="cls-32" d="M607.7,63.23H2.3c-.08-.23-.17-.46-.25-.7H608c-.08.24-.16.47-.25.7" transform="translate(0)"/><path class="cls-31" d="M608,62.53H2.05c-.09-.26-.18-.52-.26-.78H608.21c-.08.26-.17.52-.26.78" transform="translate(0)"/><path class="cls-30" d="M608.21,61.75H1.79c-.1-.31-.19-.61-.28-.92h607c-.09.31-.18.61-.28.92" transform="translate(0)"/><path class="cls-29" d="M608.49,60.83H1.51c-.11-.38-.22-.76-.32-1.15H608.81c-.1.39-.21.77-.32,1.15" transform="translate(0)"/><path class="cls-28" d="M608.81,59.68H1.19c-.13-.5-.24-1-.35-1.51H609.17c-.11.51-.23,1-.36,1.51" transform="translate(0)"/><path class="cls-27" d="M609.17,58.17H.84C.7,57.53.58,56.89.47,56.24H609.53c-.1.65-.23,1.29-.36,1.93" transform="translate(0)"/><path class="cls-20" d="M609.53,56.24H.47c-.13-.79-.23-1.59-.31-2.38H609.84c-.08.79-.18,1.59-.31,2.38" transform="translate(0)"/><path class="cls-26" d="M609.84,53.86H.16C.08,53,0,52.09,0,51.22H610c0,.87-.07,1.76-.16,2.64" transform="translate(0)"/><path class="cls-4" d="M610,51.22H0c0-.22,0-.43,0-.64H610v.64" transform="translate(0)"/></g></g></g><g class="cls-2"><g class="cls-40"><g class="cls-2"><path class="cls-18" d="M8,72v7.11l-.19.13V71.81L8,72" transform="translate(0)"/><path class="cls-19" d="M7.81,71.81v7.38l-.42.26v-8l.42.34" transform="translate(0)"/><path class="cls-22" d="M7.39,71.47v8c-.19.1-.37.19-.56.27V71c.19.18.37.35.56.51" transform="translate(0)"/><path class="cls-23" d="M6.83,71v8.76C3,81.34,0,76.9,0,69V50.58C0,58.47,3,67.11,6.83,71" transform="translate(0)"/></g></g></g><g class="cls-2"><g class="cls-41"><g class="cls-2"><path class="cls-18" d="M602,79.06V72l.24-.18v7.45l-.24-.16" transform="translate(0)"/><path class="cls-17" d="M602.24,79.22V71.77c.14-.1.27-.21.41-.33v8l-.41-.25" transform="translate(0)"/><path class="cls-16" d="M602.65,79.47v-8c.17-.15.35-.31.52-.49v8.77a4.11,4.11,0,0,1-.52-.25" transform="translate(0)"/><path class="cls-15" d="M603.17,79.72V71c.27-.27.54-.57.81-.89V80a4.23,4.23,0,0,1-.81-.26" transform="translate(0)"/><path class="cls-14" d="M604,80V70.06A19,19,0,0,0,606,67V79.78a3.39,3.39,0,0,1-2,.2" transform="translate(0)"/><path class="cls-15" d="M606,79.78V67a30.49,30.49,0,0,0,1.86-4.27V78.15A4.65,4.65,0,0,1,606,79.78" transform="translate(0)"/><path class="cls-16" d="M607.89,78.15V62.7a38.55,38.55,0,0,0,1.42-5.23V74.92a10.53,10.53,0,0,1-1.42,3.23" transform="translate(0)"/><path class="cls-17" d="M609.31,74.92V57.47A36.63,36.63,0,0,0,610,51.4V69.81a21.89,21.89,0,0,1-.68,5.11" transform="translate(0)"/><path class="cls-18" d="M610,69.81V51.4c0-.28,0-.55,0-.82V69c0,.27,0,.54,0,.8" transform="translate(0)"/></g></g></g></g><polygon class="cls-42" points="607.57 37.16 2.42 37.16 9 0 598.03 0 607.57 37.16"/></g></g></g></g></svg>